<svg width="25" height="24" viewBox="0 0 25 24" fill="none" xmlns="http://www.w3.org/2000/svg">
<path fill-rule="evenodd" clip-rule="evenodd" d="M12.4384 18C14.7184 18 16.7484 16.91 18.0284 15.21L22.8684 20.05L21.4584 21.46L18.0384 18.04C16.5084 19.27 14.5584 20 12.4384 20C7.46835 20 3.43835 15.97 3.43835 11C3.43835 6.03 7.46835 2 12.4384 2C17.4084 2 21.4384 6.03 21.4384 11C21.4384 12.4 21.1184 13.72 20.5584 14.91L19.0284 13.38C19.2884 12.64 19.4384 11.83 19.4384 11C19.4384 7.13 16.3084 4 12.4384 4C8.56835 4 5.43835 7.13 5.43835 11C5.43835 14.87 8.56835 18 12.4384 18ZM12.4384 8C10.7784 8 9.43835 9.34 9.43835 11H7.43835C7.43835 8.24 9.67835 6 12.4384 6V8Z" fill="#35363E"/>
</svg>
