<svg width="25" height="24" viewBox="0 0 25 24" fill="none" xmlns="http://www.w3.org/2000/svg">
<path fill-rule="evenodd" clip-rule="evenodd" d="M9.45835 4H22.4384L19.6384 12H9.87835L10.1784 13H19.4384V15H8.69835L5.69835 5H2.43835V3H7.17835L9.27835 10H18.2884L19.4884 6H10.1584L9.45835 4ZM10.9384 16C10.4439 16 9.96055 16.1466 9.54943 16.4213C9.13831 16.696 8.81787 17.0865 8.62866 17.5433C8.43944 18.0001 8.38993 18.5028 8.48639 18.9877C8.58285 19.4727 8.82096 19.9181 9.17059 20.2678C9.52022 20.6174 9.96568 20.8555 10.4506 20.952C10.9356 21.0484 11.4382 20.9989 11.8951 20.8097C12.3519 20.6205 12.7423 20.3 13.017 19.8889C13.2917 19.4778 13.4384 18.9945 13.4384 18.5C13.4384 17.837 13.175 17.2011 12.7061 16.7322C12.2373 16.2634 11.6014 16 10.9384 16ZM10.9384 19C10.8395 19 10.7428 18.9707 10.6606 18.9157C10.5783 18.8608 10.5143 18.7827 10.4764 18.6913C10.4386 18.6 10.4287 18.4994 10.448 18.4025C10.4673 18.3055 10.5149 18.2164 10.5848 18.1464C10.6547 18.0765 10.7438 18.0289 10.8408 18.0096C10.9378 17.9903 11.0383 18.0002 11.1297 18.0381C11.2211 18.0759 11.2991 18.14 11.3541 18.2222C11.409 18.3044 11.4384 18.4011 11.4384 18.5C11.4384 18.6326 11.3857 18.7598 11.2919 18.8536C11.1981 18.9473 11.071 19 10.9384 19ZM16.9384 16C16.4439 16 15.9606 16.1466 15.5494 16.4213C15.1383 16.696 14.8179 17.0865 14.6287 17.5433C14.4394 18.0001 14.3899 18.5028 14.4864 18.9877C14.5829 19.4727 14.821 19.9181 15.1706 20.2678C15.5202 20.6174 15.9657 20.8555 16.4506 20.952C16.9356 21.0484 17.4382 20.9989 17.8951 20.8097C18.3519 20.6205 18.7423 20.3 19.017 19.8889C19.2917 19.4778 19.4384 18.9945 19.4384 18.5C19.4384 17.837 19.175 17.2011 18.7061 16.7322C18.2373 16.2634 17.6014 16 16.9384 16ZM16.9384 19C16.8395 19 16.7428 18.9707 16.6606 18.9157C16.5783 18.8608 16.5143 18.7827 16.4764 18.6913C16.4386 18.6 16.4287 18.4994 16.448 18.4025C16.4673 18.3055 16.5149 18.2164 16.5848 18.1464C16.6547 18.0765 16.7438 18.0289 16.8408 18.0096C16.9378 17.9903 17.0383 18.0002 17.1297 18.0381C17.2211 18.0759 17.2991 18.14 17.3541 18.2222C17.409 18.3044 17.4384 18.4011 17.4384 18.5C17.4384 18.6326 17.3857 18.7598 17.2919 18.8536C17.1981 18.9473 17.071 19 16.9384 19Z" fill="#35363E"/>
</svg>
